<?xml version="1.0" encoding="UTF-8"?><svg xmlns="http://www.w3.org/2000/svg" viewBox="0 0 288 288"><defs><style>.cls-1{fill:#eceff0;}.cls-2{fill:#2f184b;}.cls-3{fill:#0091e4;mix-blend-mode:multiply;opacity:.4;}.cls-4{fill:none;stroke:#fff;stroke-miterlimit:10;stroke-width:6.34px;}.cls-5{isolation:isolate;}</style></defs><g class="cls-5"><g id="Layer_1"><g><g><path class="cls-4" d="m73.42,163.17v2.08c0,6.9,5.6,12.5,12.5,12.5h29.14c-.58,2.3-2.29,8.1-5.72,12-4.37,4.96-9.72,18.85-6.75,30.95,2.98,12.1,10.52,17.06,14.88,13.49,4.37-3.57,4.17-21.43,13.69-30.36,9.52-8.93,20.04-26.98,24.6-29.56h21.63v-71.43h-18.06s-4.36-4.96-19.44-4.96c-.33,0,.83.07-45.9.07-11.23,0-15.01,14.29-8.71,18.56-6.17,3.62-8.68,12.34-2.64,16.83-11.13,6.9-8.49,17.81-3.21,20.48-3.22,1.53-6,5.62-6,9.34Z"/><rect class="cls-2" x="188.6" y="92.79" width="43.15" height="91.16" rx="7.12" ry="7.12"/><path class="cls-3" d="m231.76,138.27v-38.36c0-3.93-3.19-7.12-7.12-7.12h-28.92c-3.93,0-7.12,3.19-7.12,7.12v38.36h43.15Z"/><rect class="cls-4" x="188.6" y="92.79" width="43.15" height="91.16" rx="7.12" ry="7.12"/></g><path class="cls-1" d="m197.25,113.15c0-3.29,2.67-5.96,5.96-5.96s5.96,2.67,5.96,5.96-2.67,5.96-5.96,5.96-5.96-2.67-5.96-5.96Z"/></g></g></g></svg>